PathFileType	4	(X/Y/Z)	/Users/itak/Documents/Research/Walk-IL/dataset/trc/00056_00006.trc
DataRate	CameraRate	NumFrames	NumMarkers	Units	OrigDataRate	OrigDataStartFrame	OrigNumFrames
100.000000	100.000000	4	54	mm	100.000000	446	510
Frame#	Time	RPSI			LPSI			L3			STRN			T10			C7			CLAV			RBAK			LBAK			LSHO			LUPA			LAEL			LAOL			LWTS			LWPS			LFRA			LHPS			LHTS			RSHO			RUPA			RAEL			RAOL			RWTS			RWPS			RFRA			RIFD			RHTS			RHPS			RBHD			LFHD			RFHD			LBHD			LHIP			RHIP			RASI			LASI			LKNE			LTHI			LANK			LTIP			LTOE			LMT1			LMT5			LHEE			RKNE			RTHI			RANK			RTIP			RTOE			RMT1			RMT5			RHEE			LIFD			*53			
		X1	Y1	Z1	X2	Y2	Z2	X3	Y3	Z3	X4	Y4	Z4	X5	Y5	Z5	X6	Y6	Z6	X7	Y7	Z7	X8	Y8	Z8	X9	Y9	Z9	X10	Y10	Z10	X11	Y11	Z11	X12	Y12	Z12	X13	Y13	Z13	X14	Y14	Z14	X15	Y15	Z15	X16	Y16	Z16	X17	Y17	Z17	X18	Y18	Z18	X19	Y19	Z19	X20	Y20	Z20	X21	Y21	Z21	X22	Y22	Z22	X23	Y23	Z23	X24	Y24	Z24	X25	Y25	Z25	X26	Y26	Z26	X27	Y27	Z27	X28	Y28	Z28	X29	Y29	Z29	X30	Y30	Z30	X31	Y31	Z31	X32	Y32	Z32	X33	Y33	Z33	X34	Y34	Z34	X35	Y35	Z35	X36	Y36	Z36	X37	Y37	Z37	X38	Y38	Z38	X39	Y39	Z39	X40	Y40	Z40	X41	Y41	Z41	X42	Y42	Z42	X43	Y43	Z43	X44	Y44	Z44	X45	Y45	Z45	X46	Y46	Z46	X47	Y47	Z47	X48	Y48	Z48	X49	Y49	Z49	X50	Y50	Z50	X51	Y51	Z51	X52	Y52	Z52	X53	Y53	Z53	X54	Y54	Z54	

447	4.46	-903.1358032226562	1028.336669921875	-130.4270324707031	-920.5162963867188	1017.041198730469	-305.4932556152344	-910.7196655273438	1083.833862304688	-225.0153350830078	-663.9701538085938	1279.931884765625	-237.5126037597656	-930.2811889648438	1218.397338867188	-226.3729858398438	-870.67431640625	1485.845458984375	-231.9430541992188	-693.9108276367188	1393.829956054688	-238.3133544921875	-930.2655639648438	1347.084594726562	-153.8302917480469	-896.9118041992188	1446.87451171875	-331.4436950683594	-797.6286010742188	1449.08154296875	-409.6836547851562	-823.6321411132812	1323.953979492188	-488.2989196777344	-817.6478881835938	1107.684448242188	-508.1767272949219	-880.3480834960938	1098.356079101562	-421.6760864257812	-759.7567749023438	855.0869140625	-456.8448181152344	-818.3202514648438	856.225341796875	-517.3817749023438	-810.4332275390625	998.1131591796875	-520.2724609375	-797.6157836914062	770.8287353515625	-517.6099243164062	-749.792724609375	770.6862182617188	-464.4519348144531	-799.8887329101562	1448.444213867188	-59.13976287841797	-809.6419677734375	1379.441040039062	4.647899627685547	-844.8484497070312	1116.724731445312	36.05291748046875	-827.1858520507812	1092.339965820312	-59.17873001098633	-707.5340576171875	861.909423828125	4.861557960510254	-780.0625	849.5728149414062	54.45024871826172	-833.9252319335938	1036.639038085938	45.20883560180664	-714.35400390625	673.2184448242188	-14.57865715026855	-690.0234985351562	757.1275634765625	6.189608097076416	-749.0237426757812	757.9551391601562	58.68706512451172	-843.671142578125	1658.407104492188	-302.5629272460938	-688.4010620117188	1697.518798828125	-157.7510833740234	-673.7612915039062	1709.750244140625	-282.3750305175781	-849.4449462890625	1638.705688476562	-165.7931518554688	-820.7506103515625	952.7924194335938	-399.1697998046875	-828.0558471679688	962.6981811523438	-55.84241485595703	-706.3486938476562	979.8970336914062	-86.52407836914062	-705.3167724609375	965.3230590820312	-353.7080078125	-751.1683349609375	489.2048034667969	-359.3420104980469	-779.5286254882812	631.9208374023438	-390.6806030273438	-938.9158935546875	51.72905731201172	-367.9158630371094	-855.783447265625	258.0154724121094	-377.9142761230469	-738.2420654296875	44.22443389892578	-400.637451171875	-773.5046997070312	44.71079635620117	-339.1218566894531	-845.9076538085938	39.26199340820312	-425.7796630859375	-977.3521728515625	50.80828857421875	-283.7919006347656	-758.7264404296875	518.0752563476562	-78.14647674560547	-749.0540161132812	789.4696655273438	-50.50455093383789	-875.7783203125	46.75741195678711	-78.02500152587891	-787.4913940429688	395.3962707519531	-71.36814117431641	-659.5386962890625	43.42118835449219	-109.8053970336914	-719.9869995117188	43.81743240356445	-151.9483337402344	-750.5504150390625	51.89273834228516	-59.8775634765625	-923.842041015625	46.83158111572266	-136.6424407958984	-773.0184936523438	665.9854125976562	-451.08984375	nan	nan	nan	
448	4.47	-903.8772583007812	1028.25390625	-131.0013732910156	-921.1647338867188	1016.982727050781	-306.0483703613281	-911.4813232421875	1083.793701171875	-225.5697021484375	-664.7906494140625	1279.959106445312	-238.0130615234375	-931.0814819335938	1218.356567382812	-226.9691162109375	-871.537841796875	1485.819213867188	-232.6311798095703	-694.7328491210938	1393.895751953125	-238.8723602294922	-931.055908203125	1347.0556640625	-154.4612121582031	-897.6935424804688	1446.8134765625	-332.1570129394531	-798.3235473632812	1448.9794921875	-410.3197937011719	-823.9385375976562	1323.660278320312	-488.7530822753906	-817.22900390625	1107.407104492188	-508.3709716796875	-879.87939453125	1097.8916015625	-421.8254089355469	-758.2046508789062	855.155029296875	-456.9267272949219	-816.8899536132812	855.9254150390625	-517.287353515625	-809.708984375	997.84228515625	-520.380615234375	-795.74658203125	770.6304321289062	-517.4428100585938	-747.8216552734375	770.7811279296875	-464.4490356445312	-800.779541015625	1448.452514648438	-59.78085708618164	-810.3731079101562	1379.396606445312	4.049776554107666	-844.7379760742188	1116.455444335938	35.42102432250977	-827.254150390625	1092.202514648438	-59.90365600585938	-706.0272827148438	862.4024658203125	3.86552619934082	-778.5470581054688	849.5632934570312	53.47486877441406	-833.3806762695312	1036.375610351562	44.51266479492188	-711.755615234375	673.6936645507812	-15.69913673400879	-687.9586791992188	757.7410278320312	5.121172904968262	-746.9305419921875	758.1504516601562	57.61466979980469	-844.286376953125	1658.446655273438	-303.2220458984375	-689.015869140625	1697.471801757812	-158.363037109375	-674.3003540039062	1709.642211914062	-282.9755859375	-850.1723022460938	1638.855834960938	-166.4476165771484	-821.3488159179688	952.7774658203125	-399.7063903808594	-828.7347412109375	962.6661987304688	-56.42570495605469	-707.0097045898438	979.9589233398438	-87.02204132080078	-705.8890380859375	965.4411010742188	-354.2444152832031	-751.5555419921875	489.2645568847656	-359.6460571289062	-779.9868774414062	631.9580688476562	-391.0334777832031	-938.9285278320312	51.70845413208008	-367.9289245605469	-855.9336547851562	258.0016784667969	-378.0567932128906	-738.2452392578125	44.23507308959961	-400.6202392578125	-773.5128784179688	44.69868087768555	-339.1066284179688	-845.9146728515625	39.27347183227539	-425.766845703125	-977.3530883789062	50.75879287719727	-283.8064270019531	-759.0481567382812	518.1561889648438	-78.49008178710938	-749.5485229492188	789.6735229492188	-50.98068618774414	-875.7841186523438	46.78456497192383	-78.06148529052734	-787.6683959960938	395.4757080078125	-71.63013458251953	-659.5299072265625	43.41996002197266	-109.7910308837891	-719.986328125	43.80989456176758	-151.9512481689453	-750.55615234375	51.90605163574219	-59.88983917236328	-923.8164672851562	46.82370376586914	-136.6843414306641	-770.5408935546875	665.963623046875	-450.9315490722656	nan	nan	nan	
449	4.48	-904.6150512695312	1028.185180664062	-131.5347442626953	-921.8153686523438	1016.944580078125	-306.5653381347656	-912.2227172851562	1083.756713867188	-226.0845184326172	-665.5888061523438	1279.986572265625	-238.5133514404297	-931.8633422851562	1218.320922851562	-227.5289306640625	-872.3793334960938	1485.798950195312	-233.2989807128906	-695.5238037109375	1393.965454101562	-239.4334869384766	-931.826904296875	1347.02783203125	-155.0671997070312	-898.4691772460938	1446.75	-332.8504028320312	-799.019287109375	1448.87353515625	-410.9441528320312	-824.2498779296875	1323.351928710938	-489.1847839355469	-816.775390625	1107.114501953125	-508.5386047363281	-879.3367919921875	1097.402465820312	-421.9273376464844	-756.4549560546875	855.2677001953125	-456.9306945800781	-815.30712890625	855.6043701171875	-517.0874633789062	-808.8960571289062	997.55859375	-520.43505859375	-793.6705932617188	770.432373046875	-517.1564331054688	-745.606201171875	770.9317016601562	-464.3510131835938	-801.638427734375	1448.462280273438	-60.40958023071289	-811.0531616210938	1379.346923828125	3.454785823822021	-844.6021728515625	1116.19921875	34.81129837036133	-827.29736328125	1092.071899414062	-60.60466766357422	-704.5198974609375	862.9093627929688	2.831092596054077	-777.0155639648438	849.5617065429688	52.48842620849609	-832.8070678710938	1036.121337890625	43.84440612792969	-709.152587890625	674.1948852539062	-16.86591720581055	-685.9259033203125	758.357666015625	3.996819496154785	-744.8175659179688	758.3518676757812	56.51700973510742	-844.8590087890625	1658.502075195312	-303.8727722167969	-689.601806640625	1697.426513671875	-158.9570770263672	-674.8058471679688	1709.521240234375	-283.55126953125	-850.8754272460938	1639.025146484375	-167.0888214111328	-821.95654296875	952.7774658203125	-400.214599609375	-829.4346313476562	962.6375732421875	-56.98775482177734	-707.6561889648438	980.0120239257812	-87.49739074707031	-706.458251953125	965.5686645507812	-354.7482299804688	-751.9461059570312	489.3406982421875	-359.8958129882812	-780.4522705078125	632.0050659179688	-391.342529296875	-938.9412231445312	51.69123458862305	-367.9380798339844	-856.10302734375	257.9963989257812	-378.1857604980469	-738.2418823242188	44.24402618408203	-400.6050720214844	-773.519287109375	44.68601226806641	-339.0872802734375	-845.91845703125	39.28554153442383	-425.7503662109375	-977.354736328125	50.71333694458008	-283.8179931640625	-759.3311157226562	518.2293701171875	-78.8115234375	-750.038818359375	789.8457641601562	-51.38974380493164	-875.790283203125	46.81145095825195	-78.09556579589844	-787.8016357421875	395.5499267578125	-71.89305114746094	-659.5195922851562	43.41698455810547	-109.77783203125	-719.9864501953125	43.80327224731445	-151.9568786621094	-750.56103515625	51.91630554199219	-59.90221405029297	-923.790771484375	46.8165397644043	-136.7238311767578	-767.724365234375	665.9879760742188	-450.6390991210938	nan	nan	nan	
450	4.49	-905.3262939453125	1028.1328125	-132.0156555175781	-922.4697265625	1016.927185058594	-307.0387268066406	-912.9456787109375	1083.731567382812	-226.56103515625	-666.3560791015625	1280.018432617188	-239.0185546875	-932.626953125	1218.291137695312	-228.0519256591797	-873.1966552734375	1485.784545898438	-233.9468231201172	-696.2830810546875	1394.0380859375	-239.996826171875	-932.5797729492188	1347.001342773438	-155.6517486572266	-899.236083984375	1446.686157226562	-333.5231323242188	-799.7189331054688	1448.767822265625	-411.5565185546875	-824.57177734375	1323.036010742188	-489.5963439941406	-816.2984008789062	1106.812744140625	-508.6874084472656	-878.73583984375	1096.898559570312	-421.9884643554688	-754.5189819335938	855.4342041015625	-456.8516235351562	-813.5755615234375	855.2725219726562	-516.7860717773438	-807.992919921875	997.2700805664062	-520.4386596679688	-791.3941650390625	770.2453002929688	-516.7557983398438	-743.1585693359375	771.1431884765625	-464.1528625488281	-802.46630859375	1448.474853515625	-61.02581024169922	-811.693115234375	1379.294189453125	2.860210418701172	-844.4429321289062	1115.960571289062	34.22502899169922	-827.2952880859375	1091.951171875	-61.27361297607422	-703.018310546875	863.432373046875	1.759821653366089	-775.4708862304688	849.5711059570312	51.49358367919922	-832.213134765625	1035.87939453125	43.20066452026367	-706.5598754882812	674.7198486328125	-18.07730293273926	-683.9229736328125	758.982666015625	2.820585012435913	-742.6994018554688	758.5601806640625	55.39689636230469	-845.3858032226562	1658.5703125	-304.5184936523438	-690.1618041992188	1697.385498046875	-159.5332641601562	-675.2841796875	1709.3916015625	-284.100341796875	-851.5535888671875	1639.210815429688	-167.7252349853516	-822.5802612304688	952.7908325195312	-400.6895141601562	-830.147216796875	962.6168823242188	-57.52120208740234	-708.2833862304688	980.0643310546875	-87.95552825927734	-707.0332641601562	965.6949462890625	-355.2259826660156	-752.3285522460938	489.4293518066406	-360.0815124511719	-780.92529296875	632.0596313476562	-391.6064147949219	-938.9533081054688	51.67749404907227	-367.94091796875	-856.2899169921875	257.9962463378906	-378.2965087890625	-738.2267456054688	44.24983978271484	-400.5923767089844	-773.5238037109375	44.67173767089844	-339.0631103515625	-845.9202270507812	39.30158233642578	-425.7290954589844	-977.357421875	50.66937637329102	-283.8251647949219	-759.5701293945312	518.2984619140625	-79.10618591308594	-750.5335693359375	789.9716796875	-51.72578811645508	-875.796875	46.83796310424805	-78.12686920166016	-787.8956298828125	395.6213684082031	-72.15358734130859	-659.5073852539062	43.41259002685547	-109.7645492553711	-719.98974609375	43.79971313476562	-151.9666442871094	-750.5618896484375	51.92429733276367	-59.91324615478516	-923.7640380859375	46.81061172485352	-136.7586517333984	-764.5847778320312	666.0650024414062	-450.2091674804688	nan	nan	nan	
